<svg width="78" height="84" viewBox="0 0 78 84" fill="none" xmlns="http://www.w3.org/2000/svg">
<g filter="url(#filter0_dddddi_109_21)">
<rect x="7" y="2" width="64" height="64" rx="32" fill="#2D2A37"/>
<rect x="7" y="2" width="64" height="64" rx="32" fill="url(#paint0_linear_109_21)"/>
<path fill-rule="evenodd" clip-rule="evenodd" d="M47.4937 25.5063C47.8354 25.848 47.8354 26.402 47.4937 26.7437L31.7437 42.4937C31.402 42.8354 30.848 42.8354 30.5063 42.4937C30.1646 42.152 30.1646 41.598 30.5063 41.2563L46.2563 25.5063C46.598 25.1646 47.152 25.1646 47.4937 25.5063Z" fill="#EBEBEB"/>
<path fill-rule="evenodd" clip-rule="evenodd" d="M27.625 27.875C27.625 27.3918 28.0168 27 28.5 27H37.25C37.7332 27 38.125 27.3918 38.125 27.875C38.125 28.3582 37.7332 28.75 37.25 28.75H28.5C28.0168 28.75 27.625 28.3582 27.625 27.875Z" fill="#EBEBEB"/>
<path fill-rule="evenodd" clip-rule="evenodd" d="M32.875 22.625C33.3582 22.625 33.75 23.0168 33.75 23.5V32.25C33.75 32.7332 33.3582 33.125 32.875 33.125C32.3918 33.125 32 32.7332 32 32.25V23.5C32 23.0168 32.3918 22.625 32.875 22.625Z" fill="#EBEBEB"/>
<path fill-rule="evenodd" clip-rule="evenodd" d="M39.875 40.125C39.875 39.6418 40.2668 39.25 40.75 39.25H49.5C49.9832 39.25 50.375 39.6418 50.375 40.125C50.375 40.6082 49.9832 41 49.5 41H40.75C40.2668 41 39.875 40.6082 39.875 40.125Z" fill="#EBEBEB"/>
</g>
<defs>
<filter id="filter0_dddddi_109_21" x="0" y="0" width="78" height="84" filterUnits="userSpaceOnUse" color-interpolation-filters="sRGB">
<feFlood flood-opacity="0" result="BackgroundImageFix"/>
<feColorMatrix in="SourceAlpha" type="matrix" values="0 0 0 0 0 0 0 0 0 0 0 0 0 0 0 0 0 0 127 0" result="hardAlpha"/>
<feOffset/>
<feGaussianBlur stdDeviation="1"/>
<feColorMatrix type="matrix" values="0 0 0 0 0 0 0 0 0 0 0 0 0 0 0 0 0 0 0.29 0"/>
<feBlend mode="normal" in2="BackgroundImageFix" result="effect1_dropShadow_109_21"/>
<feColorMatrix in="SourceAlpha" type="matrix" values="0 0 0 0 0 0 0 0 0 0 0 0 0 0 0 0 0 0 127 0" result="hardAlpha"/>
<feOffset dy="2"/>
<feGaussianBlur stdDeviation="2"/>
<feColorMatrix type="matrix" values="0 0 0 0 0 0 0 0 0 0 0 0 0 0 0 0 0 0 0.26 0"/>
<feBlend mode="normal" in2="effect1_dropShadow_109_21" result="effect2_dropShadow_109_21"/>
<feColorMatrix in="SourceAlpha" type="matrix" values="0 0 0 0 0 0 0 0 0 0 0 0 0 0 0 0 0 0 127 0" result="hardAlpha"/>
<feOffset dy="4"/>
<feGaussianBlur stdDeviation="3"/>
<feColorMatrix type="matrix" values="0 0 0 0 0 0 0 0 0 0 0 0 0 0 0 0 0 0 0.1 0"/>
<feBlend mode="normal" in2="effect2_dropShadow_109_21" result="effect3_dropShadow_109_21"/>
<feColorMatrix in="SourceAlpha" type="matrix" values="0 0 0 0 0 0 0 0 0 0 0 0 0 0 0 0 0 0 127 0" result="hardAlpha"/>
<feOffset dy="7"/>
<feGaussianBlur stdDeviation="3.5"/>
<feColorMatrix type="matrix" values="0 0 0 0 0 0 0 0 0 0 0 0 0 0 0 0 0 0 0.04 0"/>
<feBlend mode="normal" in2="effect3_dropShadow_109_21" result="effect4_dropShadow_109_21"/>
<feColorMatrix in="SourceAlpha" type="matrix" values="0 0 0 0 0 0 0 0 0 0 0 0 0 0 0 0 0 0 127 0" result="hardAlpha"/>
<feOffset dy="11"/>
<feGaussianBlur stdDeviation="3.5"/>
<feColorMatrix type="matrix" values="0 0 0 0 0 0 0 0 0 0 0 0 0 0 0 0 0 0 0.01 0"/>
<feBlend mode="normal" in2="effect4_dropShadow_109_21" result="effect5_dropShadow_109_21"/>
<feBlend mode="normal" in="SourceGraphic" in2="effect5_dropShadow_109_21" result="shape"/>
<feColorMatrix in="SourceAlpha" type="matrix" values="0 0 0 0 0 0 0 0 0 0 0 0 0 0 0 0 0 0 127 0" result="hardAlpha"/>
<feOffset dy="2"/>
<feGaussianBlur stdDeviation="1.5"/>
<feComposite in2="hardAlpha" operator="arithmetic" k2="-1" k3="1"/>
<feColorMatrix type="matrix" values="0 0 0 0 1 0 0 0 0 1 0 0 0 0 1 0 0 0 0.06 0"/>
<feBlend mode="normal" in2="shape" result="effect6_innerShadow_109_21"/>
</filter>
<linearGradient id="paint0_linear_109_21" x1="39" y1="2" x2="39" y2="66" gradientUnits="userSpaceOnUse">
<stop stop-opacity="0.05"/>
<stop offset="1" stop-color="white" stop-opacity="0.05"/>
</linearGradient>
</defs>
</svg>
